<svg width="102" height="32" viewBox="0 0 102 32" fill="none" xmlns="http://www.w3.org/2000/svg">
<g clip-path="url(#clip0_2_3)">
<path d="M9.67686 18.0775L20.3507 28.7513L17.9446 31.1606C17.4509 31.6535 16.7944 31.9494 16.0981 31.9926C15.4018 32.0358 14.7136 31.8234 14.1628 31.3953L0.760654 17.9971C0.290111 17.5279 0.0178032 16.8958 0 16.2316C0 16.1655 0 16.0971 0 16.031C0.018975 15.3696 0.291275 14.7407 0.760654 14.2742L14.7683 0.27054C15.255 0.0294624 15.8052 -0.0526886 16.3411 0.0356802C16.877 0.124049 17.3717 0.378475 17.7552 0.763056L20.3507 3.35772L9.67686 14.0315C9.4706 14.2397 9.29703 14.4779 9.16207 14.7381C8.909 15.2259 8.80195 15.7764 8.85374 16.3235C8.90553 16.8706 9.11397 17.3912 9.45407 17.8229C9.52307 17.9122 9.59747 17.9972 9.67686 18.0775Z" fill="#394EA1"/>
<path d="M31.159 14.0888L28.7672 11.6963L24.3346 7.26361L19.9019 11.6963L17.3208 14.2742C16.8516 14.7418 16.5801 15.372 16.5625 16.0342C16.5578 16.101 16.5578 16.168 16.5625 16.2347C16.5805 16.8976 16.8519 17.5283 17.3208 17.9971L24.3346 25.0109L28.7672 20.5782L31.159 18.1833C31.6752 17.6695 31.9746 16.9771 31.9952 16.249C31.9992 16.1738 31.9992 16.0983 31.9952 16.0231C31.9746 15.295 31.6752 14.6026 31.159 14.0888ZM24.3346 16.1456L24.3258 16.1376L24.3346 16.1257L24.3457 16.1376L24.3346 16.1456Z" fill="#ED1C24"/>
<path d="M48.5522 16.0231C48.5578 16.0983 48.5578 16.1738 48.5522 16.2491C48.5355 16.861 48.3218 17.4512 47.9427 17.9319L34.7132 31.1606C34.4477 31.4266 34.1324 31.6376 33.7853 31.7816C33.4382 31.9256 33.0661 31.9997 32.6902 31.9997C32.3144 31.9997 31.9423 31.9256 31.5952 31.7816C31.2481 31.6376 30.9327 31.4266 30.6673 31.1606L28.258 28.7513L38.9318 18.0775C39.4675 17.5405 39.7683 16.813 39.7683 16.0545C39.7683 15.296 39.4675 14.5685 38.9318 14.0315L28.258 3.35771L30.8535 0.762258C31.2545 0.359774 31.7767 0.100246 32.3397 0.0236183C32.9027 -0.0530092 33.4752 0.0575113 33.9693 0.338169L47.7191 14.0888C48.2348 14.6027 48.5331 15.2953 48.5522 16.0231Z" fill="#394EA1"/>
<path d="M68.6387 8.5136C69.9865 9.21479 71.103 10.2904 71.854 11.6111C72.612 12.9399 72.9918 14.4737 72.9934 16.2124C72.9934 17.9343 72.6136 19.4641 71.854 20.8018C71.1038 22.1306 69.9819 23.2114 68.626 23.9113C67.2336 24.6465 65.6197 25.0143 63.7844 25.0149H57.2026V7.40604H63.7844C65.6351 7.40604 67.2532 7.77522 68.6387 8.5136ZM67.2861 19.9712C68.1878 19.0864 68.6387 17.8327 68.6387 16.2101C68.6387 14.5874 68.1878 13.3252 67.2861 12.4235C66.3843 11.5217 65.1248 11.0709 63.5075 11.0709H61.4817V21.2991H63.5091C65.1259 21.2991 66.3854 20.8565 67.2877 19.9712H67.2861Z" fill="#394EA1"/>
<path d="M86.8316 7.40604V10.8425H79.6746V14.5535H85.0294V17.8889H79.6746V25.0109H75.3939V7.40604H86.8316Z" fill="#394EA1"/>
<path d="M91.9859 24.5597C90.9685 24.1423 90.1553 23.5235 89.5464 22.7035C88.9374 21.8834 88.6162 20.897 88.5828 19.7444H93.1364C93.2033 20.3958 93.4284 20.8933 93.8119 21.2371C94.1954 21.5808 94.6959 21.7521 95.3134 21.751C95.9499 21.751 96.4504 21.6046 96.8148 21.3118C97.1792 21.019 97.3632 20.6135 97.367 20.0953C97.3727 19.8948 97.3367 19.6953 97.261 19.5095C97.1854 19.3238 97.0719 19.1558 96.9277 19.0164C96.6154 18.7186 96.2511 18.4807 95.8528 18.3146C95.2595 18.0723 94.6534 17.8627 94.0371 17.6868C92.9025 17.3367 91.9769 16.9858 91.2602 16.6341C90.5281 16.2703 89.8932 15.7374 89.4079 15.0794C88.8907 14.3935 88.6322 13.4992 88.6322 12.3964C88.6322 10.7579 89.2244 9.47475 90.4089 8.54701C91.5934 7.61927 93.1364 7.1554 95.038 7.1554C96.9747 7.1554 98.5345 7.61927 99.7173 8.54701C100.9 9.47475 101.534 10.7661 101.62 12.4211H96.9914C96.958 11.853 96.7498 11.4058 96.3668 11.0796C95.9838 10.7534 95.4913 10.5903 94.8893 10.5903C94.3721 10.5903 93.9559 10.7279 93.6377 11.004C93.3194 11.2801 93.1603 11.6779 93.1603 12.1975C93.1603 12.7661 93.4274 13.2093 93.9615 13.5271C94.4957 13.8448 95.3298 14.1875 96.4639 14.5551C97.598 14.9402 98.5196 15.308 99.2288 15.6587C99.9513 16.02 100.581 16.5427 101.069 17.1863C101.587 17.8547 101.845 18.7156 101.845 19.7691C101.856 20.7341 101.591 21.6822 101.082 22.5022C100.573 23.3217 99.8351 23.9736 98.8676 24.4579C97.9 24.9422 96.7572 25.1846 95.4391 25.1851C94.1538 25.1857 93.0027 24.9772 91.9859 24.5597Z" fill="#394EA1"/>
</g>
<defs>
<clipPath id="clip0_2_3">
<rect width="101.845" height="32" fill="white"/>
</clipPath>
</defs>
</svg>

