<svg width="37" height="24" viewBox="0 0 37 24" fill="none" xmlns="http://www.w3.org/2000/svg">
<g clip-path="url(#clip0_2_33)">
<path d="M7.2579 13.5581L15.2632 21.5634L13.4574 23.3707C13.0874 23.7411 12.5947 23.9635 12.0722 23.9959C11.5496 24.0283 11.0332 23.8686 10.6203 23.5468L0.570446 13.4981C0.21919 13.1465 0.0157089 12.6739 0.00170707 12.1771C-0.000569024 12.1279 -0.000569024 12.0764 0.00170707 12.0269C0.0150927 11.5302 0.218806 11.0577 0.570731 10.707L11.076 0.202294C11.4413 0.0215902 11.854 -0.039919 12.256 0.0264395C12.658 0.092798 13.0291 0.283676 13.3169 0.572159L15.2632 2.51794L7.2579 10.5235C7.10307 10.6797 6.9728 10.8584 6.87153 11.0536C6.68128 11.4197 6.60075 11.8329 6.63961 12.2437C6.67847 12.6545 6.83507 13.0453 7.09061 13.3692C7.1423 13.4357 7.19817 13.4988 7.2579 13.5581Z" fill="#394EA1"/>
<path d="M23.3695 10.5665L21.5754 8.77206L18.2508 5.44754L14.9263 8.77007L12.9916 10.7048C12.6398 11.0555 12.4361 11.528 12.4226 12.0246C12.4193 12.0746 12.4193 12.1248 12.4226 12.1748C12.4365 12.672 12.6401 13.1451 12.9916 13.497L18.2508 18.7584L21.5754 15.4339L23.3695 13.6375C23.7564 13.2519 23.9805 12.7325 23.9954 12.1865C23.9987 12.1296 23.9987 12.0726 23.9954 12.0158C23.9801 11.4704 23.756 10.9516 23.3695 10.5665ZM18.2508 12.1094L18.2443 12.1031L18.2508 12.0946L18.2594 12.1031L18.2508 12.1094Z" fill="#ED1C24"/>
<path d="M36.4144 12.0172C36.4187 12.074 36.4187 12.1311 36.4144 12.1879C36.4019 12.6469 36.2416 13.0895 35.9572 13.45L26.0351 23.3706C25.836 23.5702 25.5995 23.7285 25.3392 23.8365C25.0788 23.9445 24.7997 24.0001 24.5178 24.0001C24.2359 24.0001 23.9568 23.9445 23.6965 23.8365C23.4361 23.7285 23.1996 23.5702 23.0005 23.3706L21.1933 21.5634L29.1986 13.5581C29.6 13.1552 29.8255 12.6096 29.8255 12.0408C29.8255 11.472 29.6 10.9264 29.1986 10.5235L21.1933 2.51792L23.1399 0.57157C23.4408 0.269726 23.8325 0.0751193 24.2549 0.0176978C24.6772 -0.0397237 25.1066 0.0432218 25.4772 0.25377L35.7899 10.5665C36.1763 10.9521 36.3999 11.4715 36.4144 12.0172Z" fill="#394EA1"/>
</g>
<defs>
<clipPath id="clip0_2_33">
<rect width="36.4175" height="24" fill="white"/>
</clipPath>
</defs>
</svg>

