<svg width="66" height="32" viewBox="0 0 66 32" fill="none" xmlns="http://www.w3.org/2000/svg">
<g clip-path="url(#clip0_2_10)">
<path d="M6.25092 11.6777L13.1444 18.5712L11.5903 20.1273C11.2716 20.4463 10.8472 20.6378 10.3972 20.6658C9.94714 20.6937 9.50239 20.5562 9.14668 20.2791L0.491287 11.6263C0.187564 11.3232 0.0117133 10.9152 0 10.4863C0 10.4436 0 10.3993 0 10.3566C0.0113793 9.92903 0.186723 9.52216 0.489743 9.22024L9.53919 0.174392C9.8536 0.0185845 10.209 -0.0345472 10.5552 0.0224963C10.9015 0.0795398 11.221 0.243878 11.4688 0.492314L13.1449 2.16835L6.25143 9.06179C6.11803 9.19637 6.00581 9.35039 5.91859 9.51861C5.75471 9.83392 5.68531 10.1898 5.7187 10.5436C5.7521 10.8974 5.88688 11.234 6.10687 11.5131C6.15149 11.5708 6.1996 11.6258 6.25092 11.6777Z" fill="#394EA1"/>
<path d="M20.1263 9.09986L18.583 7.55655L15.7181 4.69165L12.8547 7.55295L11.1874 9.22023C10.8858 9.52283 10.7114 9.92948 10.7003 10.3566C10.6977 10.3998 10.6977 10.4431 10.7003 10.4863C10.7113 10.9145 10.8856 11.3223 11.1874 11.6263L15.7181 16.1533L18.5809 13.2899L20.1242 11.743C20.4581 11.4116 20.652 10.9647 20.6659 10.4945C20.6688 10.4458 20.6688 10.3971 20.6659 10.3484C20.6526 9.87846 20.4594 9.43157 20.1263 9.09986ZM15.7181 10.4292L15.7124 10.4235L15.7181 10.4158L15.7253 10.4235L15.7181 10.4292Z" fill="#ED1C24"/>
<path d="M31.3605 10.3494C31.3642 10.3981 31.3642 10.4469 31.3605 10.4955C31.3508 10.8906 31.2135 11.2719 30.9691 11.5825L22.4243 20.1273C22.2528 20.2992 22.0491 20.4355 21.8248 20.5286C21.6005 20.6216 21.3601 20.6695 21.1174 20.6695C20.8746 20.6695 20.6342 20.6216 20.4099 20.5286C20.1856 20.4355 19.9819 20.2992 19.8104 20.1273L18.2522 18.5712L25.1456 11.6777C25.435 11.3893 25.6203 11.013 25.6724 10.6078C25.7246 10.2026 25.6406 9.79164 25.4337 9.43939C25.3541 9.30247 25.2573 9.17627 25.1456 9.06385L18.2522 2.17041L19.9287 0.492315C20.1877 0.232265 20.525 0.0645938 20.8887 0.0151385C21.2524 -0.0343168 21.6222 0.0371879 21.9412 0.218635L30.823 9.09986C31.1558 9.43201 31.3483 9.87937 31.3605 10.3494Z" fill="#394EA1"/>
<path d="M44.3352 5.49677C45.2059 5.9494 45.9271 6.6442 46.4119 7.49741C46.9017 8.3548 47.1469 9.34544 47.1476 10.4693C47.1476 11.5815 46.9024 12.5696 46.4119 13.4335C45.9273 14.2912 45.2026 14.9885 44.3269 15.4398C43.4273 15.9155 42.3848 16.1533 41.1991 16.1533H36.9478V4.78427H41.1991C42.3947 4.78427 43.44 5.02177 44.3352 5.49677ZM43.4606 12.899C44.0436 12.3269 44.3352 11.517 44.3352 10.4693C44.3352 9.42157 44.0436 8.60636 43.4606 8.02368C42.8776 7.44065 42.0641 7.14914 41.0201 7.14914H39.7145V13.7576H41.0242C42.0668 13.7576 42.8795 13.4714 43.4622 12.899H43.4606Z" fill="#394EA1"/>
<path d="M56.0859 4.78427V7.00355H51.4632V9.40082H54.9223V11.5553H51.4632V16.1533H48.6986V4.78427H56.0859Z" fill="#394EA1"/>
<path d="M59.4174 15.8632C58.7599 15.5936 58.2347 15.1941 57.8417 14.6645C57.4486 14.135 57.2412 13.498 57.2192 12.7534H60.1602C60.2038 13.1742 60.3494 13.4954 60.597 13.7169C60.8446 13.9385 61.1679 14.0493 61.5667 14.0493C61.9783 14.0493 62.3015 13.9546 62.5364 13.7653C62.7713 13.576 62.8902 13.3141 62.8929 12.9798C62.8966 12.8504 62.8732 12.7216 62.8243 12.6018C62.7755 12.4819 62.7021 12.3736 62.609 12.2837C62.4074 12.0912 62.1722 11.9374 61.915 11.83C61.5319 11.6737 61.1405 11.5385 60.7426 11.4251C60.0097 11.1984 59.4117 10.9717 58.9487 10.745C58.4758 10.5101 58.0656 10.1659 57.7522 9.74087C57.4178 9.29742 57.2508 8.71954 57.2511 8.00722C57.2511 6.94953 57.6337 6.12078 58.3988 5.52094C59.1639 4.92111 60.1606 4.62154 61.3887 4.62222C62.6398 4.62222 63.6474 4.9218 64.4115 5.52094C65.1756 6.12009 65.5845 6.95485 65.638 8.02522H62.6475C62.6266 7.65791 62.4922 7.36897 62.2442 7.1584C61.9963 6.94782 61.6783 6.84236 61.2905 6.84202C60.9561 6.84202 60.6865 6.93101 60.4818 7.10901C60.277 7.287 60.1741 7.54422 60.1731 7.88066C60.1731 8.24797 60.3456 8.53417 60.6906 8.73926C61.0356 8.94435 61.5743 9.16573 62.3065 9.4034C63.039 9.65204 63.6344 9.88971 64.0926 10.1164C64.5589 10.3504 64.9653 10.6883 65.2804 11.1041C65.6148 11.5362 65.7818 12.0924 65.7815 12.7724C65.7885 13.3959 65.6175 14.0083 65.2887 14.538C64.9598 15.0672 64.483 15.4883 63.8585 15.8014C63.234 16.1146 62.4966 16.2711 61.6464 16.2711C60.8165 16.2691 60.0735 16.1331 59.4174 15.8632Z" fill="#394EA1"/>
<path d="M3.47554 23.8596V24.4908H0.898211V26.4935H2.99094V27.1242H0.898211V29.7992H0.126556V23.8596H3.47554Z" fill="#394EA1"/>
<path d="M4.41078 26.1905C4.59271 25.8421 4.86835 25.5515 5.20661 25.3514C5.54807 25.1514 5.93756 25.0483 6.33323 25.053C6.74169 25.053 7.09614 25.1412 7.39657 25.3175C7.67713 25.4738 7.90963 25.7038 8.06894 25.9826V25.1297H8.85088V29.8008H8.06894V28.9314C7.90543 29.2144 7.66897 29.4484 7.38422 29.6089C7.06281 29.7925 6.69764 29.8854 6.32757 29.8779C5.93172 29.8822 5.54262 29.7753 5.20456 29.5693C4.8664 29.3612 4.59253 29.0635 4.41335 28.7091C4.21593 28.3184 4.1167 27.8855 4.12424 27.4477C4.12253 26.97 4.21804 26.5509 4.41078 26.1905ZM7.85751 26.5362C7.72604 26.2862 7.52715 26.078 7.28339 25.9353C7.04134 25.7992 6.76845 25.7273 6.49074 25.7265C6.21302 25.7256 5.93972 25.7959 5.69687 25.9307C5.4544 26.0719 5.2568 26.2787 5.12688 26.5274C4.9799 26.8119 4.90683 27.1287 4.91441 27.4488C4.90671 27.7725 4.97973 28.093 5.12688 28.3814C5.25642 28.6325 5.45393 28.8422 5.69687 28.9864C5.93681 29.1264 6.21029 29.1986 6.48808 29.1953C6.76712 29.1983 7.04182 29.1261 7.28339 28.9864C7.52825 28.8433 7.72735 28.6335 7.85751 28.3814C8.00482 28.0955 8.07804 27.7771 8.07048 27.4555C8.07748 27.1359 8.0037 26.8197 7.85596 26.5362H7.85751Z" fill="#394EA1"/>
<path d="M10.1612 26.1905C10.3444 25.8404 10.6232 25.5494 10.9652 25.3514C11.3242 25.1486 11.731 25.0455 12.1433 25.0531C12.7157 25.0531 13.1878 25.1921 13.5595 25.4703C13.9313 25.7484 14.1765 26.1349 14.2952 26.6298H13.4618C13.3907 26.3582 13.2269 26.12 12.9988 25.9564C12.7693 25.7918 12.4845 25.7093 12.1443 25.709C11.7019 25.709 11.3445 25.8612 11.0722 26.1658C10.7999 26.4703 10.6639 26.9007 10.6643 27.457C10.6643 28.0191 10.8003 28.4538 11.0722 28.7611C11.3442 29.0684 11.7012 29.2214 12.1433 29.22C12.4831 29.22 12.7666 29.1404 12.9936 28.9813C13.2248 28.8156 13.3905 28.574 13.4618 28.2986H14.2952C14.1842 28.7553 13.92 29.16 13.5467 29.4453C13.1728 29.7331 12.705 29.8768 12.1433 29.8764C11.731 29.8842 11.3241 29.7812 10.9652 29.578C10.6221 29.379 10.343 29.0859 10.1612 28.7333C9.96875 28.3695 9.87238 27.9435 9.87204 27.4555C9.87204 26.974 9.96841 26.5523 10.1612 26.1905Z" fill="#394EA1"/>
<path d="M15.3498 24.2181C15.2754 24.1443 15.2246 24.05 15.2039 23.9472C15.1833 23.8444 15.1937 23.7379 15.2338 23.641C15.2739 23.5441 15.3419 23.4614 15.4291 23.4033C15.5164 23.3452 15.6189 23.3144 15.7238 23.3148C15.7912 23.314 15.8581 23.3274 15.9201 23.3539C15.9821 23.3805 16.0379 23.4197 16.0839 23.4691C16.1794 23.5707 16.2326 23.7049 16.2326 23.8444C16.2326 23.9838 16.1794 24.1181 16.0839 24.2197C16.0378 24.2689 15.982 24.3081 15.92 24.3347C15.858 24.3612 15.7912 24.3746 15.7238 24.374C15.6541 24.3751 15.5849 24.3618 15.5205 24.335C15.4562 24.3082 15.3981 24.2684 15.3498 24.2181ZM16.0978 25.1297V29.8008H15.3261V25.1297H16.0978Z" fill="#394EA1"/>
<path d="M18.19 23.4933V29.8008H17.4183V23.4933H18.19Z" fill="#394EA1"/>
<path d="M19.5342 24.2181C19.4597 24.1442 19.409 24.0499 19.3883 23.9471C19.3677 23.8443 19.3781 23.7376 19.4183 23.6408C19.4584 23.5439 19.5265 23.4611 19.6139 23.4031C19.7012 23.345 19.8038 23.3143 19.9087 23.3148C19.9762 23.3139 20.0431 23.3272 20.1051 23.3538C20.1671 23.3804 20.2229 23.4197 20.2688 23.4691C20.3646 23.5706 20.4179 23.7048 20.4179 23.8444C20.4179 23.9839 20.3646 24.1182 20.2688 24.2197C20.2228 24.269 20.167 24.3082 20.105 24.3347C20.043 24.3613 19.9761 24.3747 19.9087 24.374C19.8389 24.3751 19.7697 24.3618 19.7052 24.335C19.6408 24.3082 19.5826 24.2684 19.5342 24.2181ZM20.2827 25.1297V29.8008H19.511V25.1297H20.2827Z" fill="#394EA1"/>
<path d="M22.5452 25.7686V28.5224C22.5452 28.7498 22.5934 28.9103 22.6897 29.0039C22.7861 29.0976 22.9535 29.1445 23.1918 29.1449H23.7613V29.8008H23.0642C22.6331 29.8008 22.3099 29.7013 22.0945 29.5024C21.8791 29.3035 21.7713 28.9777 21.7709 28.525V25.7686H21.167V25.1297H21.7709V23.9537H22.5452V25.1297H23.7613V25.7686H22.5452Z" fill="#394EA1"/>
<path d="M28.7117 25.1297L25.905 31.9979H25.1045L26.0228 29.7478L24.1435 25.1276H25.0016L26.4652 28.9123L27.9107 25.1276L28.7117 25.1297Z" fill="#394EA1"/>
<path d="M32.5859 29.6516C32.2961 29.5271 32.0451 29.3271 31.859 29.0723C31.6823 28.8216 31.5871 28.5226 31.5864 28.2158H32.4095C32.433 28.4847 32.5556 28.7352 32.7537 28.9185C32.955 29.1089 33.2485 29.204 33.6344 29.204C34.0027 29.204 34.2932 29.1119 34.5058 28.9278C34.609 28.8406 34.6912 28.7314 34.7464 28.6081C34.8016 28.4849 34.8284 28.3508 34.8248 28.2158C34.8248 27.9884 34.7625 27.8036 34.638 27.6612C34.5102 27.5175 34.3499 27.4064 34.1704 27.3371C33.9223 27.2445 33.6696 27.1648 33.4132 27.0984C33.0924 27.0192 32.7781 26.916 32.4728 26.7898C32.2333 26.6842 32.0254 26.5183 31.8693 26.3083C31.7016 26.0901 31.6183 25.7938 31.6183 25.426C31.6127 25.1207 31.6987 24.8208 31.8652 24.5648C32.0362 24.3096 32.2766 24.1086 32.5582 23.9856C32.8808 23.8437 33.2305 23.7735 33.5829 23.7798C34.1389 23.7798 34.594 23.9189 34.9482 24.197C35.1215 24.3296 35.2647 24.4973 35.3686 24.6892C35.4724 24.8811 35.5344 25.0927 35.5506 25.3103H34.6998C34.6716 25.0839 34.5526 24.8838 34.3427 24.7099C34.1329 24.536 33.8551 24.4494 33.5094 24.4501C33.1859 24.4501 32.9222 24.534 32.7182 24.7017C32.5124 24.8694 32.4095 25.1029 32.4095 25.4044C32.4012 25.5973 32.4665 25.7862 32.5921 25.9327C32.7157 26.0706 32.8701 26.1772 33.0428 26.244C33.2218 26.315 33.4728 26.3961 33.7959 26.4873C34.1177 26.5713 34.4332 26.678 34.7399 26.8068C34.9816 26.9145 35.1922 27.0815 35.3521 27.2924C35.5223 27.5115 35.6093 27.8068 35.6093 28.1839C35.6096 28.4724 35.53 28.7553 35.3793 29.0013C35.2148 29.2681 34.9791 29.4837 34.6987 29.6238C34.3983 29.7833 34.044 29.8629 33.6359 29.8625C33.2749 29.8681 32.9168 29.7962 32.5859 29.6516Z" fill="#394EA1"/>
<path d="M40.9774 27.7554H37.2519C37.28 28.216 37.4374 28.5761 37.7241 28.8357C38.0091 29.0925 38.3819 29.23 38.7653 29.22C39.1008 29.22 39.3801 29.1416 39.6034 28.9849C39.8237 28.8331 39.9891 28.614 40.0746 28.3604H40.9085C40.7906 28.7998 40.5264 29.186 40.1595 29.4551C39.7856 29.737 39.3206 29.8779 38.7643 29.8779C38.3495 29.8849 37.9402 29.7819 37.578 29.5796C37.2285 29.3809 36.943 29.0866 36.7549 28.7313C36.557 28.365 36.4578 27.9402 36.4571 27.457C36.4564 26.9738 36.554 26.5497 36.7498 26.1848C36.9329 25.8314 37.2154 25.5394 37.5626 25.3447C37.9313 25.1446 38.3459 25.044 38.7653 25.053C39.1754 25.045 39.5804 25.1447 39.9398 25.3422C40.2723 25.5281 40.5449 25.8049 40.7259 26.1401C40.9139 26.4924 41.0093 26.8868 41.0031 27.2862C41.0031 27.4339 40.9939 27.5903 40.9774 27.7554ZM40.0077 26.3618C39.881 26.1521 39.6965 25.9835 39.4763 25.8761C39.2446 25.7637 38.9899 25.7066 38.7324 25.7095C38.3631 25.701 38.0048 25.8356 37.7324 26.085C37.458 26.3343 37.3007 26.6809 37.2606 27.1247H40.2027C40.2104 26.8571 40.1429 26.5928 40.0077 26.3618Z" fill="#394EA1"/>
<path d="M43.3804 25.266C43.6324 25.1182 43.9399 25.0445 44.3027 25.0448V25.8463H44.097C43.2289 25.8463 42.7948 26.3177 42.7944 27.2605V29.8008H42.0228V25.1297H42.7944V25.8885C42.9248 25.6283 43.1285 25.4119 43.3804 25.266Z" fill="#394EA1"/>
<path d="M46.931 29.0852L48.3771 25.1297H49.2002L47.3714 29.8008H46.4716L44.6438 25.1297H45.4762L46.931 29.0852Z" fill="#394EA1"/>
<path d="M49.9934 24.2181C49.919 24.1443 49.8682 24.0499 49.8476 23.9471C49.8269 23.8443 49.8374 23.7376 49.8775 23.6408C49.9177 23.5439 49.9858 23.4612 50.0731 23.4031C50.1604 23.3451 50.2631 23.3143 50.368 23.3148C50.4354 23.314 50.5023 23.3274 50.5643 23.3539C50.6263 23.3805 50.6821 23.4197 50.7281 23.4691C50.8238 23.5706 50.8772 23.7049 50.8772 23.8444C50.8772 23.9839 50.8238 24.1182 50.7281 24.2197C50.682 24.269 50.6262 24.3081 50.5642 24.3347C50.5022 24.3613 50.4354 24.3747 50.368 24.374C50.2982 24.3751 50.2289 24.3618 50.1645 24.335C50.1001 24.3082 50.0418 24.2684 49.9934 24.2181ZM50.7419 25.1297V29.8008H49.9677V25.1297H50.7419Z" fill="#394EA1"/>
<path d="M52.061 26.1905C52.2445 25.8406 52.5233 25.5497 52.865 25.3514C53.2242 25.1485 53.6312 25.0455 54.0436 25.053C54.6157 25.053 55.0874 25.1921 55.4588 25.4703C55.8302 25.7484 56.0756 26.1349 56.195 26.6298H55.3616C55.2905 26.3582 55.1268 26.12 54.8986 25.9564C54.6688 25.7918 54.384 25.7093 54.0441 25.709C53.6014 25.709 53.244 25.8612 52.972 26.1658C52.7001 26.4703 52.5629 26.9007 52.5605 27.457C52.5605 28.0191 52.6977 28.4538 52.972 28.7611C53.2464 29.0684 53.6038 29.2219 54.0441 29.2215C54.3843 29.2215 54.6676 29.142 54.894 28.9828C55.1253 28.8173 55.291 28.5756 55.3621 28.3002H56.1955C56.085 28.7568 55.8209 29.1617 55.4475 29.4468C55.073 29.7346 54.6052 29.8783 54.0441 29.8779C53.6316 29.8858 53.2246 29.7828 52.8655 29.5796C52.5224 29.3803 52.2433 29.0873 52.061 28.7349C51.8686 28.371 51.7722 27.945 51.7719 27.457C51.7712 26.9745 51.8675 26.5523 52.061 26.1905Z" fill="#394EA1"/>
<path d="M61.4504 27.7554H57.7244C57.7532 28.216 57.9106 28.5761 58.1966 28.8357C58.4813 29.0937 58.8542 29.2326 59.2384 29.2236C59.5738 29.2236 59.8531 29.1452 60.0764 28.9885C60.2974 28.8364 60.4631 28.6167 60.5486 28.3624H61.3825C61.2646 28.8019 61.0004 29.1881 60.6335 29.4571C60.2593 29.7391 59.7943 29.88 59.2384 29.88C58.8235 29.8869 58.4143 29.784 58.0521 29.5816C57.7024 29.3832 57.4167 29.0889 57.229 28.7333C57.0304 28.3671 56.9309 27.9423 56.9306 27.4591C56.9303 26.9758 57.0266 26.5525 57.2197 26.1889C57.4032 25.8356 57.6858 25.5436 58.033 25.3489C58.4016 25.1479 58.8161 25.0467 59.2358 25.0551C59.6457 25.047 60.0505 25.1467 60.4097 25.3442C60.7425 25.5299 61.0154 25.8067 61.1963 26.1421C61.3844 26.4945 61.4798 26.8889 61.4736 27.2883C61.4751 27.4339 61.4669 27.5903 61.4504 27.7554ZM60.4807 26.3618C60.3541 26.1519 60.1696 25.9831 59.9493 25.8756C59.7176 25.7631 59.463 25.7061 59.2054 25.709C58.836 25.7006 58.4776 25.8351 58.2049 26.0845C57.9305 26.3338 57.7734 26.6804 57.7336 27.1242H60.6757C60.6833 26.8568 60.6158 26.5927 60.4807 26.3618Z" fill="#394EA1"/>
<path d="M63.1857 29.6948C62.9199 29.5859 62.6879 29.4084 62.5133 29.1804C62.3489 28.9621 62.2542 28.6992 62.2417 28.4262H63.0411C63.0511 28.5395 63.0855 28.6492 63.1421 28.7478C63.1987 28.8464 63.276 28.9315 63.3688 28.9972C63.5638 29.1454 63.821 29.2195 64.1405 29.2195C64.4352 29.2195 64.6672 29.1541 64.838 29.023C64.9178 28.9676 64.9829 28.8937 65.0277 28.8076C65.0725 28.7214 65.0957 28.6257 65.0952 28.5286C65.0987 28.4345 65.0748 28.3413 65.0265 28.2605C64.9783 28.1796 64.9076 28.1144 64.8231 28.0728C64.6415 27.9735 64.3601 27.8758 63.981 27.7791C63.6926 27.7072 63.4097 27.6146 63.1347 27.5018C62.9173 27.4082 62.7249 27.265 62.573 27.0835C62.4176 26.8994 62.3398 26.6566 62.3394 26.3551C62.3384 26.1192 62.4129 25.8892 62.5519 25.6987C62.7068 25.4894 62.9155 25.326 63.1558 25.2259C63.4375 25.106 63.7413 25.0471 64.0473 25.0531C64.5618 25.0531 64.9786 25.1839 65.2979 25.4456C65.6172 25.7072 65.7873 26.0651 65.8083 26.5192H65.0335C65.029 26.406 65.0006 26.2951 64.9501 26.1936C64.8997 26.0922 64.8283 26.0026 64.7408 25.9307C64.5623 25.7836 64.3226 25.709 64.0206 25.709C63.7421 25.709 63.5211 25.7688 63.3575 25.8885C63.2803 25.9396 63.2172 26.0093 63.174 26.0912C63.1308 26.1731 63.109 26.2646 63.1106 26.3572C63.1082 26.4273 63.1203 26.4971 63.1459 26.5624C63.1716 26.6277 63.2103 26.687 63.2597 26.7368C63.3666 26.8411 63.494 26.9222 63.6337 26.975C63.8384 27.0527 64.047 27.1195 64.2588 27.1751C64.5366 27.2472 64.8094 27.337 65.0757 27.4442C65.2844 27.5313 65.4694 27.6669 65.6153 27.8398C65.7656 28.0167 65.8436 28.247 65.8494 28.5306C65.8522 28.7775 65.7778 29.0191 65.6364 29.2215C65.4847 29.434 65.2773 29.6006 65.0371 29.703C64.7567 29.8237 64.4539 29.8834 64.1487 29.878C63.8185 29.8833 63.4908 29.821 63.1857 29.6948Z" fill="#394EA1"/>
</g>
<defs>
<clipPath id="clip0_2_10">
<rect width="65.8479" height="32" fill="white"/>
</clipPath>
</defs>
</svg>

